Coordinates
version=1
nRows=11
nColumns=46
inDegrees=yes

Units are S.I. units (second, meters, Newtons, ...)
Angles are in degrees.

endheader
time	pelvis_tilt	pelvis_list	pelvis_rotation	pelvis_tx	pelvis_ty	pelvis_tz	bb_angle	bb_tx	bb_ty	bb_tz	hip_flexion_r	hip_adduction_r	hip_rotation_r	knee_angle_r	knee_angle_r_beta	ankle_angle_r	subtalar_angle_r	mtp_angle_r	crank_angle_r	hip_flexion_l	hip_adduction_l	hip_rotation_l	knee_angle_l	knee_angle_l_beta	ankle_angle_l	subtalar_angle_l	mtp_angle_l	crank_angle_l	lumbar_extension	lumbar_bending	lumbar_rotation	arm_flex_r	arm_add_r	arm_rot_r	elbow_flex_r	pro_sup_r	wrist_flex_r	wrist_dev_r	arm_flex_l	arm_add_l	arm_rot_l	elbow_flex_l	pro_sup_l	wrist_flex_l	wrist_dev_l
      2.50000000	    -15.52277079	      2.48133611	     -1.02665410	      0.13636562	      1.14548201	     -0.23420792	      0.00000000	      0.50000000	      0.00000000	      0.25000000	     49.66265084	     -9.21968679	     -7.70531568	     40.35907823	      0.70439880	      7.57262250	     11.23237279	      0.00000000	      0.00000000	     83.10553980	    -16.09576710	     -2.29687896	    112.68748711	      1.96676768	      4.99978544	      2.49122454	      0.00000000	      0.00000000	    -57.68109381	     -3.41031205	     -0.44678037	     89.41642476	    -29.36316924	     48.33617217	     62.03737753	     29.32833785	      0.00000000	      0.00000000	     89.63300126	    -28.32185085	     51.54846145	     58.67080305	     31.73889234	      0.00000000	      0.00000000
      2.50500000	    -15.25831331	      2.39492917	     -0.55191175	      0.13694334	      1.14661734	     -0.23271227	      0.00000000	      0.50000000	      0.00000000	      0.25000000	     48.08431860	     -9.55386515	     -8.85597687	     39.30336061	      0.68597305	      6.73600560	     11.94285050	      0.00000000	      0.00000000	     83.76982847	    -15.84363766	     -1.82792091	    113.37929332	      1.97884197	      6.80553925	      3.40152982	      0.00000000	      0.00000000	    -57.98161149	     -3.55157387	     -0.78157915	     89.42818558	    -29.46175815	     48.82409392	     61.51152987	     29.36001467	      0.00000000	      0.00000000	     89.63765630	    -27.96398931	     50.91043688	     58.85802022	     31.65979042	      0.00000000	      0.00000000
      2.51000000	    -15.19349842	      2.42552288	     -0.18986014	      0.13733919	      1.14746234	     -0.23106333	      0.00000000	      0.50000000	      0.00000000	      0.25000000	     46.88813141	     -9.82875080	     -9.66065139	     38.44705385	      0.67102768	      5.85916380	     12.41494993	      0.00000000	      0.00000000	     84.59869474	    -15.62184466	     -1.55096867	    113.91960722	      1.98827223	      8.22871656	      3.76016935	      0.00000000	      0.00000000	    -58.10244545	     -3.83944004	     -1.08993412	     89.41120802	    -29.53273283	     49.03075597	     61.22613681	     29.40256801	      0.00000000	      0.00000000	     89.64632493	    -27.63713261	     50.46516114	     58.93159990	     31.57985469	      0.00000000	      0.00000000
      2.51500000	    -15.23772450	      2.56327666	      0.13648519	      0.13760341	      1.14822292	     -0.22934199	      0.00000000	      0.50000000	      0.00000000	      0.25000000	     45.92121002	    -10.10149935	    -10.18342440	     37.73561895	      0.65861080	      5.02252082	     12.69807656	      0.00000000	      0.00000000	     85.47556317	    -15.41617032	     -1.48221987	    114.30487234	      1.99499637	      9.44348147	      3.84235523	      0.00000000	      0.00000000	    -58.10698289	     -4.21500385	     -1.44021592	     89.35967393	    -29.62746490	     49.09741869	     61.04566630	     29.40906151	      0.00000000	      0.00000000	     89.66031730	    -27.34845136	     50.22482176	     59.02358538	     31.54958225	      0.00000000	      0.00000000
      2.52000000	    -15.19513116	      2.59531266	      0.45312987	      0.13791383	      1.14940028	     -0.22738301	      0.00000000	      0.50000000	      0.00000000	      0.25000000	     44.86589932	    -10.28384499	    -10.86201689	     37.08771671	      0.64730277	      4.24853783	     12.96701008	      0.00000000	      0.00000000	     86.22365014	    -15.21600992	     -1.27387327	    114.49913595	      1.99838691	     10.56697816	      4.05983519	      0.00000000	      0.00000000	    -58.24620432	     -4.61255870	     -1.74662907	     89.34222580	    -29.71595603	     49.20744628	     60.77795806	     29.40400330	      0.00000000	      0.00000000	     89.66967498	    -27.01791439	     49.83556008	     59.13950490	     31.50861075	      0.00000000	      0.00000000
      2.52500000	    -14.84852055	      2.49545577	      0.89655673	      0.13825939	      1.15108095	     -0.22581650	      0.00000000	      0.50000000	      0.00000000	      0.25000000	     43.48595631	    -10.46343232	    -11.68737387	     36.58977371	      0.63861202	      3.69791890	     13.24646557	      0.00000000	      0.00000000	     86.68650480	    -14.90986993	     -0.89358659	    114.59362345	      2.00003603	     11.69663218	      4.93027804	      0.00000000	      0.00000000	    -58.69191640	     -4.81298030	     -1.94688685	     89.36605865	    -29.85205912	     49.37031410	     60.12797147	     29.43352061	      0.00000000	      0.00000000	     89.67404472	    -26.18629846	     48.68747324	     59.04563611	     31.27523300	      0.00000000	      0.00000000
      2.53000000	    -14.76513316	      2.53864785	      1.22898800	      0.13839429	      1.15240528	     -0.22421448	      0.00000000	      0.50000000	      0.00000000	      0.25000000	     42.58906933	    -10.65472979	    -12.14195364	     36.34540897	      0.63434705	      3.12582550	     13.32928153	      0.00000000	      0.00000000	     87.31099633	    -14.63663365	     -0.76301260	    114.53190284	      1.99895880	     12.58210054	      5.42201613	      0.00000000	      0.00000000	    -58.90142078	     -5.14561178	     -2.16567808	     89.34975002	    -30.00345496	     49.28146833	     59.74700328	     29.53755193	      0.00000000	      0.00000000	     89.68075079	    -25.42661433	     47.77093243	     58.83597632	     30.98793710	      0.00000000	      0.00000000
      2.53500000	    -14.81035556	      2.60968472	      1.57990905	      0.13854947	      1.15370082	     -0.22269607	      0.00000000	      0.50000000	      0.00000000	      0.25000000	     41.90165692	    -10.85701753	    -12.50142522	     36.23096885	      0.63234970	      2.62424126	     13.20186327	      0.00000000	      0.00000000	     88.00208154	    -14.32182411	     -0.71420484	    114.31318903	      1.99514153	     13.32266426	      5.54178311	      0.00000000	      0.00000000	    -59.00500544	     -5.44939257	     -2.46488023	     89.31367358	    -30.15555352	     49.23999026	     59.57788318	     29.54117340	      0.00000000	      0.00000000	     89.69348531	    -25.10773376	     47.56306213	     58.94649451	     30.95233024	      0.00000000	      0.00000000
      2.54000000	    -14.75577080	      2.64212875	      1.96684859	      0.13862425	      1.15515360	     -0.22133640	      0.00000000	      0.50000000	      0.00000000	      0.25000000	     41.20779761	    -11.05982183	    -12.84363234	     36.34540848	      0.63434705	      2.28592150	     12.97826717	      0.00000000	      0.00000000	     88.53680859	    -13.93406534	     -0.61822829	    113.97739893	      1.98928088	     14.06437838	      5.84037282	      0.00000000	      0.00000000	    -59.23117442	     -5.69906789	     -2.73410283	     89.29974043	    -30.35460314	     49.19859441	     59.31472917	     29.53444228	      0.00000000	      0.00000000	     89.70422374	    -24.69057119	     47.13730471	     59.09739060	     30.89770323	      0.00000000	      0.00000000
      2.54500000	    -14.72402395	      2.58727381	      2.14011804	      0.13846447	      1.15654834	     -0.21947145	      0.00000000	      0.50000000	      0.00000000	      0.25000000	     40.67878946	    -10.97509493	    -12.81535970	     36.62913123	      0.63929894	      2.20150405	     12.93975917	      0.00000000	      0.00000000	     89.12770230	    -13.83601464	     -0.45127440	    113.49806601	      1.98091495	     14.24332834	      5.87982588	      0.00000000	      0.00000000	    -59.40618114	     -6.00818698	     -2.87903457	     89.26259246	    -30.39786900	     49.17366626	     59.27321924	     29.53098342	      0.00000000	      0.00000000	     89.72081211	    -24.59945367	     47.05814009	     59.12852247	     30.89003644	      0.00000000	      0.00000000
      2.55000000	    -14.51327906	      2.57137831	      2.66684328	      0.13819464	      1.15829069	     -0.21846232	      0.00000000	      0.50000000	      0.00000000	      0.25000000	     40.02464774	    -11.20125167	    -13.09695071	     37.16230406	      0.64860456	      1.89861310	     12.10011896	      0.00000000	      0.00000000	     89.37931342	    -13.25971970	     -0.30676780	    112.92230036	      1.97086594	     15.08867864	      6.83045028	      0.00000000	      0.00000000	    -59.89742550	     -6.15436661	     -3.01027982	     89.32302194	    -30.90191548	     48.89559840	     58.72125453	     29.54815004	      0.00000000	      0.00000000	     89.71292126	    -23.25207565	     45.21917180	     59.32817562	     30.60510897	      0.00000000	      0.00000000
